<?xml version="1.0" encoding="UTF-8"?>
<svg width="168px" height="42px" viewBox="0 0 168 42" version="1.1" xmlns="http://www.w3.org/2000/svg" xmlns:xlink="http://www.w3.org/1999/xlink">
    <title>logo.ea876b95 (3)</title>
    <g id="new-website" stroke="none" stroke-width="1" fill="none" fill-rule="evenodd">
        <g id="VERSION2" transform="translate(-24.000000, -37.000000)" fill-rule="nonzero">
            <g id="logo.ea876b95-(3)" transform="translate(24.000000, 37.395900)">
                <path d="M44.1,27.8179669 C44.1,29.465721 43.6,30.7257683 42.6,31.7919622 C41.5,32.858156 39.9,33.4397163 37.9,33.4397163 L12.8,33.4397163 C10.8,33.4397163 9.3,32.858156 8.1,31.7919622 C7.1,30.822695 6.6,29.465721 6.6,27.8179669 L6.6,25.8794326 C6.6,25.7825059 6.6,25.6855792 6.6,25.5886525 L6.6,21.5177305 C6.6,20.4515366 7.5,19.4822695 8.7,19.4822695 C9.8,19.4822695 10.8,20.3546099 10.8,21.5177305 L10.8,25.5886525 C10.8,25.6855792 10.8,25.7825059 10.8,25.7825059 C10.8,25.7825059 10.8,25.7825059 10.8,25.7825059 L10.8,27.5271868 C10.8,28.9810875 11.6,29.7565012 13.1,29.7565012 L20.5,29.7565012 C21.6,29.7565012 22.5,28.8841608 22.5,27.8179669 L22.5,23.8439716 C22.5,22.9716312 23.1,22.1962175 23.9,21.9054374 L24,21.9054374 C25.3,21.5177305 26.6,22.4869976 26.6,23.8439716 L26.6,27.8179669 C26.6,28.8841608 27.5,29.7565012 28.6,29.7565012 L29.1,29.7565012 C30.2,29.7565012 31.1,28.8841608 31.1,27.8179669 L31.1,22.6808511 C31.1,21.8085106 31.7,21.0330969 32.5,20.8392435 C33.8,20.4515366 35.2,21.4208038 35.2,22.6808511 L35.2,27.8179669 C35.2,28.8841608 36.1,29.7565012 37.2,29.7565012 L37.6,29.7565012 C39.1,29.7565012 39.9,28.9810875 39.9,27.5271868 L39.9,21.6146572 C39.9,20.7423168 40.5,19.9669031 41.3,19.7730496 L41.3,19.7730496 C42.6,19.3853428 44,20.3546099 44,21.7115839 L44.1,27.8179669 Z M28.5,12.5035461 C31.9,12.5035461 31.9,17.6406619 28.5,17.6406619 C25.1,17.6406619 25.1,12.5035461 28.5,12.5035461 Z M33.1,6.10638298 C36.5,6.10638298 36.5,11.2434988 33.1,11.2434988 C29.7,11.1465721 29.7,6.10638298 33.1,6.10638298 Z M37.9,12.5035461 C41.3,12.5035461 41.3,17.6406619 37.9,17.6406619 C34.5,17.6406619 34.5,12.5035461 37.9,12.5035461 Z M42.8,0 L7.9,0 C3.5,0 0,3.39243499 0,7.6572104 L0,31.8888889 C0,36.1536643 3.5,39.5460993 7.9,39.5460993 L42.8,39.5460993 C47.2,39.5460993 50.7,36.1536643 50.7,31.8888889 L50.7,7.6572104 C50.7,3.39243499 47.2,0 42.8,0 Z" id="Fill-1-Copy-6" fill="#00B991"></path>
                <path d="M61.6,28.4964539 C62.3,28.9810875 63.1,29.2718676 64.1,29.5626478 C65.1,29.8534279 66.1,30.0472813 67.2,30.0472813 C68.8,30.0472813 70,29.6595745 70.9,28.9810875 C71.8,28.3026005 72.2,27.3333333 72.2,26.1702128 C72.2,25.1040189 71.9,24.2316785 71.2,23.5531915 C70.5,22.8747045 69.3,22.1962175 67.7,21.6146572 C65.6,20.9361702 64,19.9669031 62.8,18.9007092 C61.6,17.7375887 60.9,16.2836879 60.9,14.5390071 C60.9,13.56974 61.1,12.6973995 61.5,11.8250591 C61.9,10.9527187 62.5,10.2742317 63.2,9.69267139 C63.9,9.11111111 64.8,8.62647754 65.8,8.23877069 C66.9,7.85106383 68,7.75413712 69.2,7.75413712 C70.5,7.75413712 71.6,7.85106383 72.5,8.14184397 C73.4,8.43262411 74.2,8.62647754 74.8,8.91725768 L75,9.0141844 L74,12.0189125 L73.7,11.9219858 C73.3,11.7281324 72.7,11.4373522 71.9,11.2434988 C71.1,10.9527187 70.2,10.855792 69.1,10.855792 C68.3,10.855792 67.6,10.9527187 67,11.1465721 C66.4,11.3404255 66,11.6312057 65.6,11.9219858 C65.3,12.212766 65,12.6004728 64.8,12.9881797 C64.6,13.3758865 64.6,13.7635934 64.6,14.1513002 C64.6,15.2174941 65,16.0898345 65.7,16.6713948 C66.5,17.3498818 67.7,17.9314421 69.4,18.6099291 C71.6,19.4822695 73.2,20.3546099 74.2,21.5177305 C75.3,22.6808511 75.8,24.1347518 75.8,25.9763593 C75.8,26.9456265 75.6,27.8179669 75.2,28.787234 C74.8,29.6595745 74.3,30.4349882 73.5,31.1134752 C72.8,31.7919622 71.8,32.2765957 70.7,32.6643026 C69.6,33.0520095 68.3,33.2458629 66.8,33.2458629 C65.6,33.2458629 64.3,33.0520095 63.1,32.7612293 C61.9,32.4704492 60.9,32.0827423 60.2,31.5981087 L60,31.501182 L61,28.3995272 L61.6,28.4964539 Z M85.6,15.4113475 C86.1,15.1205674 86.6,14.9267139 87.2,14.7328605 C87.8,14.5390071 88.4,14.4420804 89,14.4420804 C89.6,14.4420804 90.3,14.5390071 91.1,14.7328605 C91.9,14.9267139 92.6,15.3144208 93.2,15.8959811 C93.9,16.4775414 94.4,17.2529551 94.8,18.2222222 C95.2,19.1914894 95.4,20.4515366 95.4,22.0023641 L95.4,32.5673759 L91.7,32.5673759 L91.7,22.4869976 C91.7,21.8085106 91.6,21.1300236 91.5,20.5484634 C91.4,19.9669031 91.1,19.4822695 90.8,18.9976359 C90.5,18.6099291 90.1,18.2222222 89.6,17.9314421 C89.1,17.6406619 88.5,17.5437352 87.8,17.5437352 C86.8,17.5437352 85.9,17.8345154 85.2,18.4160757 C84.5,18.9976359 84,19.6761229 83.7,20.5484634 C83.5,20.9361702 83.5,21.4208038 83.5,22.0023641 L83.5,32.7612293 L79.8,32.7612293 L79.8,6.78486998 L83.5,6.78486998 L83.5,17.1560284 C84.1,16.3806147 84.8,15.7990544 85.6,15.4113475 Z M108.1,32.2765957 C107.1,32.858156 106,33.0520095 104.6,33.0520095 C103.7,33.0520095 102.9,32.858156 102.1,32.5673759 C101.4,32.2765957 100.8,31.8888889 100.3,31.4042553 C99.8,30.9196217 99.5,30.3380615 99.2,29.7565012 C99,29.1749409 98.8,28.4964539 98.8,27.8179669 C98.8,25.5886525 99.8,23.9408983 101.7,22.7777778 C103.6,21.7115839 106.2,21.1300236 109.6,21.1300236 L109.6,21.0330969 C109.6,20.6453901 109.6,20.2576832 109.5,19.8699764 C109.4,19.4822695 109.2,18.9976359 109,18.7068558 C108.7,18.3191489 108.4,18.0283688 107.9,17.7375887 C107.4,17.4468085 106.7,17.3498818 105.9,17.3498818 C105.1,17.3498818 104.3,17.4468085 103.5,17.6406619 C102.7,17.8345154 102,18.1252955 101.4,18.5130024 L101.1,18.7068558 L100.1,16.0898345 L100.3,15.9929078 C101.1,15.5082742 102,15.1205674 103.1,14.8297872 C104.2,14.5390071 105.3,14.4420804 106.4,14.4420804 C107.8,14.4420804 109,14.6359338 109.9,15.1205674 C110.8,15.5082742 111.5,16.0898345 112.1,16.8652482 C112.6,17.5437352 113,18.3191489 113.2,19.1914894 C113.4,20.0638298 113.5,20.9361702 113.5,21.8085106 L113.5,28.3026005 C113.5,29.0780142 113.5,29.7565012 113.6,30.5319149 C113.6,31.2104019 113.7,31.8888889 113.8,32.4704492 L113.8,32.7612293 L110.3,32.7612293 L110,30.9196217 C109.5,31.4042553 108.9,31.8888889 108.1,32.2765957 Z M109.7,23.8439716 C108.9,23.8439716 108.1,23.9408983 107.3,23.9408983 C106.4,24.0378251 105.6,24.2316785 104.9,24.5224586 C104.2,24.8132388 103.7,25.2009456 103.2,25.6855792 C102.8,26.1702128 102.6,26.751773 102.6,27.5271868 C102.6,28.4964539 102.9,29.1749409 103.4,29.6595745 C104,30.144208 104.6,30.3380615 105.4,30.3380615 C106.5,30.3380615 107.4,30.0472813 108.1,29.465721 C108.8,28.8841608 109.3,28.3026005 109.5,27.6241135 C109.5,27.43026 109.6,27.3333333 109.6,27.1394799 C109.6,26.9456265 109.6,26.8486998 109.6,26.751773 L109.6,23.8439716 L109.7,23.8439716 Z M123.9,15.4113475 C124.4,15.1205674 124.9,14.9267139 125.5,14.7328605 C126.1,14.5390071 126.7,14.4420804 127.3,14.4420804 C127.9,14.4420804 128.6,14.5390071 129.4,14.7328605 C130.2,14.9267139 130.9,15.3144208 131.5,15.8959811 C132.2,16.4775414 132.7,17.2529551 133.1,18.2222222 C133.5,19.1914894 133.7,20.4515366 133.7,22.0023641 L133.7,32.5673759 L130,32.5673759 L130,22.4869976 C130,21.8085106 129.9,21.1300236 129.8,20.5484634 C129.7,19.9669031 129.4,19.4822695 129.1,18.9976359 C128.8,18.6099291 128.4,18.2222222 127.9,17.9314421 C127.4,17.6406619 126.8,17.5437352 126.1,17.5437352 C125.1,17.5437352 124.2,17.8345154 123.5,18.4160757 C122.8,18.9976359 122.3,19.6761229 122,20.5484634 C121.8,20.9361702 121.8,21.4208038 121.8,22.0023641 L121.8,32.7612293 L118.1,32.7612293 L118.1,6.78486998 L121.8,6.78486998 L121.8,17.1560284 C122.4,16.3806147 123.1,15.7990544 123.9,15.4113475 Z M143.7,15.6052009 C144.6,14.9267139 145.7,14.5390071 146.9,14.5390071 C147.2,14.5390071 147.6,14.5390071 147.9,14.6359338 L148.1,14.7328605 L148.1,18.2222222 L147.8,18.1252955 C147.5,18.0283688 147.1,18.0283688 146.7,18.0283688 C145.6,18.0283688 144.7,18.4160757 144,19.0945626 C143.3,19.7730496 142.8,20.7423168 142.6,21.9054374 C142.6,22.0992908 142.5,22.2931442 142.5,22.5839243 C142.5,22.8747045 142.5,23.0685579 142.5,23.3593381 L142.5,32.858156 L138.7,32.858156 L138.7,20.5484634 C138.7,19.4822695 138.7,18.6099291 138.7,17.7375887 C138.7,16.8652482 138.6,15.9929078 138.6,15.2174941 L138.6,14.9267139 L142,14.9267139 L142.1,17.6406619 C142.4,16.7683215 143,16.0898345 143.7,15.6052009 Z M155.2,34.6997636 C155.7,34.1182033 156.1,33.4397163 156.5,32.6643026 C156.6,32.4704492 156.6,32.3735225 156.7,32.2765957 C156.7,32.179669 156.8,32.0827423 156.8,32.0827423 C156.8,31.9858156 156.7,31.6950355 156.6,31.4042553 L149.9,15.0236407 L154,15.0236407 L154.1,15.2174941 L158,25.4917258 C158.2,26.0732861 158.4,26.6548463 158.6,27.3333333 C158.7,27.7210402 158.8,28.0118203 158.9,28.3995272 C159,28.108747 159.1,27.7210402 159.2,27.43026 C159.4,26.751773 159.6,26.1702128 159.8,25.4917258 L163.4,15.1205674 L167.4,15.1205674 L167.3,15.5082742 L162.4,27.9148936 C161.8,29.3687943 161.3,30.7257683 160.8,31.8888889 C160.3,33.0520095 159.8,34.0212766 159.3,34.893617 C158.8,35.7659574 158.3,36.5413712 157.8,37.2198582 C157.3,37.8983452 156.8,38.3829787 156.2,38.8676123 C155.4,39.5460993 154.6,40.1276596 153.8,40.4184397 C153.1,40.7092199 152.5,40.9030733 152.1,41 L151.9,41 L150.9,37.8983452 L151.2,37.8014184 C151.6,37.7044917 152,37.5106383 152.5,37.2198582 C153,37.0260047 153.5,36.6382979 153.9,36.3475177 C154.2,35.6690307 154.7,35.2813239 155.2,34.6997636 Z" id="Combined-Shape" fill="#1D474C"></path>
            </g>
        </g>
    </g>
</svg>